{"title":"TNA.Sacrifice.2011.PPV.HDTV.XviD-XS","uid":6397500,"size":1588264031,"categoryP":"video","categoryS":"tv_shows","magnet":"?xt=urn:btih:0e77b6942d39e08ff1369c4d02ec38544b14f1b5&amp;dn=TNA.Sacrifice.2011.PPV.HDTV.XviD-XS&amp;tr=udp%3A%2F%2Ftracker.openbittorrent.com%3A80&amp;tr=udp%3A%2F%2Fopen.demonii.com%3A1337&amp;tr=udp%3A%2F%2Ftracker.coppersurfer.tk%3A6969&amp;tr=udp%3A%2F%2Fexodus.desync.com%3A6969","seeders":0,"leechers":1,"uploader":"scene4all","files":-1,"time":1305560327,"description":"--------------------------------------------------------------------------------\n                                                                                \n           SSSSSSSSSSSSSSS       444444444                 AAA                  \n         SS:::::::::::::::S     4::::::::4                A:::A                 \n        S:::::SSSSSS::::::S    4:::::::::4               A:::::A                \n        S:::::S     SSSSSSS   4::::44::::4              A:::::::A               \n        S:::::S              4::::4 4::::4             A:::::::::A              \n        S:::::S             4::::4  4::::4            A:::::A:::::A             \n         S::::SSSS         4::::4   4::::4           A:::::A A:::::A            \n          SS::::::SSSSS   4::::444444::::444        A:::::A   A:::::A           \n            SSS::::::::SS 4::::::::::::::::4       A:::::A     A:::::A          \n               SSSSSS::::S4444444444:::::444      A:::::AAAAAAAAA:::::A         \n                    S:::::S         4::::4       A:::::::::::::::::::::A        \n                    S:::::S         4::::4      A:::::AAAAAAAAAAAAA:::::A       \n        SSSSSSS     S:::::S         4::::4     A:::::A             A:::::A      \n        S::::::SSSSSS:::::S       44::::::44  A:::::A               A:::::A     \n        S:::::::::::::::SS        4::::::::4 A:::::A                 A:::::A    \n         SSSSSSSSSSSSSSS          4444444444AAAAAAA                   AAAAAAA   \n                                                                                \n                                                                                \n---------------------------------------------------------------------------------\n\n                       TNA.Sacrifice.2011.PPV.HDTV.XviD-XS                       \n\n---------------------------------------------------------------------------------\n\nTNA.Sacrifice.2011.PPV.HDTV.XviD-XS \n\nGeneral Information\nComplete name : TNA.Sacrifice.2011.PPV.HDTV.XviD-XS.avi\nFormat : AVI\nFormat/Info : Audio Video Interleave\nFormat profile : OpenDML\nFile size : 1.48 GiB\nDuration : 2hr 53mn 48s\nOverall bit rate : 1 202 Kbps\nWriting application : Lavf51.12.1\nVideo\nID : 0\nFormat : MPEG-4 Visual\nFormat profile : Simple@L1\nFormat settings, BVOP : No\nFormat settings, QPel : No\nFormat settings, GMC : No warppoints\nFormat settings, Matrix : Default (H.263)\nCodec ID : DX50\nCodec ID/Hint : DivX 5\nDuration : 2hr 53mn 48s\nBit rate : 1 074 Kbps\nWidth : 624 pixels\nHeight : 352 pixels\nDisplay aspect ratio : 16:9\nFrame rate : 29.970 fps\nColor space : YUV\nChroma subsampling : 4:2:0\nBit depth : 8 bits\nScan type : Progressive\nBits/(Pixel*Frame) : 0.163\nStream size : 460 MiB (30%)\nWriting library : Lavc51.40.4\nAudio\nID : 1\nFormat : MPEG Audio\nFormat version : Version 1\nFormat profile : Layer 3\nMode : Joint stereo\nMode extension : MS Stereo\nCodec ID : 55\nCodec ID/Hint : MP3\nDuration : 2hr 53mn 48s\nBit rate mode : Constant\nBit rate : 128 Kbps\nChannel(s) : 2 channels\nSampling rate : 48.0 KHz\nStream size : 2.59 MiB (0%)\nAlignment : Aligned on interleaves\nInterleave, duration : 508 ms (15.23 video frames)\n\n---------------------------------------------------------------------------------","torrent":{"xt":"urn:btih:0e77b6942d39e08ff1369c4d02ec38544b14f1b5","amp;dn":"TNA.Sacrifice.2011.PPV.HDTV.XviD-XS","amp;tr":["udp%3A%2F%2Ftracker.openbittorrent.com%3A80","udp%3A%2F%2Fopen.demonii.com%3A1337","udp%3A%2F%2Ftracker.coppersurfer.tk%3A6969","udp%3A%2F%2Fexodus.desync.com%3A6969"],"infoHash":"0e77b6942d39e08ff1369c4d02ec38544b14f1b5","infoHashBuffer":{"type":"Buffer","data":[14,119,182,148,45,57,224,143,241,54,156,77,2,236,56,84,75,20,241,181]},"announce":[],"urlList":[]}}